<svg width="56" height="56" viewBox="0 0 56 56" fill="none" xmlns="http://www.w3.org/2000/svg">
<rect x="4" y="4" width="48" height="48" rx="24" fill="#F8285A"/>
<rect x="4" y="4" width="48" height="48" rx="24" stroke="#FFEEF3" stroke-width="8"/>
<path opacity="0.4" d="M28 38C33.5228 38 38 33.5228 38 28C38 22.4772 33.5228 18 28 18C22.4772 18 18 22.4772 18 28C18 33.5228 22.4772 38 28 38Z" fill="white"/>
<path d="M28 29.75C28.41 29.75 28.75 29.41 28.75 29V24C28.75 23.59 28.41 23.25 28 23.25C27.59 23.25 27.25 23.59 27.25 24V29C27.25 29.41 27.59 29.75 28 29.75Z" fill="white"/>
<path d="M28.92 31.6199C28.87 31.4999 28.8 31.3899 28.71 31.2899C28.61 31.1999 28.5 31.1299 28.38 31.0799C28.14 30.9799 27.86 30.9799 27.62 31.0799C27.5 31.1299 27.39 31.1999 27.29 31.2899C27.2 31.3899 27.13 31.4999 27.08 31.6199C27.03 31.7399 27 31.8699 27 31.9999C27 32.1299 27.03 32.2599 27.08 32.3799C27.13 32.5099 27.2 32.6099 27.29 32.7099C27.39 32.7999 27.5 32.8699 27.62 32.9199C27.74 32.9699 27.87 32.9999 28 32.9999C28.13 32.9999 28.26 32.9699 28.38 32.9199C28.5 32.8699 28.61 32.7999 28.71 32.7099C28.8 32.6099 28.87 32.5099 28.92 32.3799C28.97 32.2599 29 32.1299 29 31.9999C29 31.8699 28.97 31.7399 28.92 31.6199Z" fill="white"/>
</svg>
