<svg width="27" height="27" viewBox="0 0 27 27" fill="none" xmlns="http://www.w3.org/2000/svg">
<path d="M19.1261 19.0466C18.9154 19.2561 18.6302 19.3737 18.333 19.3737C18.0358 19.3737 17.7507 19.2561 17.5399 19.0466L7.93238 9.55159C7.82694 9.44701 7.74324 9.32259 7.68613 9.18549C7.62901 9.0484 7.59961 8.90136 7.59961 8.75285C7.59961 8.60433 7.62901 8.45729 7.68613 8.3202C7.74324 8.1831 7.82694 8.05868 7.93238 7.9541C8.14317 7.74456 8.4283 7.62695 8.72551 7.62695C9.02272 7.62695 9.30785 7.74456 9.51863 7.9541L19.1261 17.4491C19.2316 17.5537 19.3153 17.6781 19.3724 17.8152C19.4295 17.9523 19.4589 18.0993 19.4589 18.2478C19.4589 18.3964 19.4295 18.5434 19.3724 18.6805C19.3153 18.8176 19.2316 18.942 19.1261 19.0466Z" fill="white"/>
<path opacity="0.3" d="M9.51771 19.1252C9.30289 19.343 9.01034 19.4666 8.70442 19.4687C8.3985 19.4708 8.10427 19.3513 7.88646 19.1365C7.66866 18.9217 7.54511 18.6291 7.543 18.3232C7.54089 18.0173 7.66039 17.723 7.87521 17.5052L17.4827 7.87523C17.6975 7.65742 17.9901 7.53388 18.296 7.53177C18.6019 7.52966 18.8962 7.64916 19.114 7.86398C19.3318 8.07881 19.4553 8.37136 19.4574 8.67728C19.4595 8.9832 19.34 9.27742 19.1252 9.49523L9.51771 19.1252Z" fill="white"/>
</svg>
