<svg width="35" height="35" viewBox="0 0 35 35" fill="none" xmlns="http://www.w3.org/2000/svg">
<path opacity="0.4" d="M15.984 3.00426L7.96315 6.00843C6.4319 6.59176 5.17773 8.4001 5.17773 10.048V21.8605C5.17773 23.0418 5.95065 24.6022 6.89857 25.3022L14.9194 31.2959C16.334 32.3605 18.6527 32.3605 20.0673 31.2959L28.0882 25.3022C29.0361 24.5876 29.809 23.0418 29.809 21.8605V10.048C29.809 8.41468 28.5548 6.59176 27.0236 6.02301L19.0027 3.01885C18.1861 2.69801 16.8152 2.69801 15.984 3.00426Z" fill="white"/>
<path d="M21.4083 18.8272L19.0896 16.5084L21.35 14.248C21.7729 13.8251 21.7729 13.1251 21.35 12.7022C20.9271 12.2793 20.2271 12.2793 19.8042 12.7022L17.5437 14.9626L15.225 12.6438C14.8021 12.2209 14.1021 12.2209 13.6792 12.6438C13.2563 13.0668 13.2563 13.7668 13.6792 14.1897L15.9979 16.5084L13.6062 18.9001C13.1833 19.323 13.1833 20.023 13.6062 20.4459C13.825 20.6647 14.1021 20.7668 14.3792 20.7668C14.6562 20.7668 14.9333 20.6647 15.1521 20.4459L17.5437 18.0543L19.8625 20.373C20.0812 20.5918 20.3583 20.6938 20.6354 20.6938C20.9125 20.6938 21.1896 20.5918 21.4083 20.373C21.8313 19.9355 21.8313 19.2501 21.4083 18.8272Z" fill="white"/>
</svg>
