<svg width="35" height="35" viewBox="0 0 35 35" fill="none" xmlns="http://www.w3.org/2000/svg">
<path opacity="0.4" d="M15.984 3.00426L7.96315 6.00843C6.4319 6.59176 5.17773 8.4001 5.17773 10.048V21.8605C5.17773 23.0418 5.95065 24.6022 6.89857 25.3022L14.9194 31.2959C16.334 32.3605 18.6527 32.3605 20.0673 31.2959L28.0882 25.3022C29.0361 24.5876 29.809 23.0418 29.809 21.8605V10.048C29.809 8.41468 28.5548 6.59176 27.0236 6.02301L19.0027 3.01885C18.1861 2.69801 16.8152 2.69801 15.984 3.00426Z" fill="white"/>
<path d="M15.5454 20.7521C15.2684 20.7521 14.9913 20.65 14.7725 20.4312L12.4246 18.0833C12.0017 17.6604 12.0017 16.9604 12.4246 16.5375C12.8475 16.1146 13.5475 16.1146 13.9704 16.5375L15.5454 18.1125L21.0434 12.6146C21.4663 12.1916 22.1663 12.1916 22.5892 12.6146C23.0121 13.0375 23.0121 13.7375 22.5892 14.1604L16.3184 20.4312C16.0996 20.65 15.8225 20.7521 15.5454 20.7521Z" fill="white"/>
</svg>
