<svg width="100" height="101" viewBox="0 0 100 101" fill="none" xmlns="http://www.w3.org/2000/svg">
<path d="M30.5249 11.1277C29.736 11.1277 28.9671 11.4055 28.4238 11.9477C27.8793 12.4877 27.6016 13.2621 27.6016 14.0488V86.9955C27.6016 87.7821 27.8793 88.551 28.4238 89.0955C28.9671 89.6399 29.736 89.9177 30.5249 89.9177H69.5471C70.3338 89.9177 71.1094 89.6399 71.6471 89.0955C72.1927 88.551 72.4694 87.7821 72.4694 86.9955V14.0488C72.4694 13.2621 72.1916 12.4877 71.6471 11.9477C71.1094 11.4044 70.3338 11.1277 69.5471 11.1277H63.5227C63.0482 11.1277 62.626 11.411 62.4471 11.8499L61.5494 14.0488C61.2594 14.7677 61.0294 15.1199 60.6627 15.3577C60.3049 15.601 59.6682 15.8032 58.4182 15.8032H41.6516C40.4027 15.8032 39.766 15.5999 39.4071 15.3577C39.0427 15.121 38.8105 14.7688 38.5216 14.0488L37.6249 11.8499C37.4493 11.4155 37.0271 11.1277 36.5593 11.1277H30.5249Z" fill="#D0E3F9"/>
<path d="M30.3487 8.63341H69.7198C72.562 8.63341 74.8053 10.889 74.8053 13.7256V87.319C74.8053 90.1545 72.5609 92.4123 69.7198 92.4123H30.3487C27.5087 92.4123 25.262 90.1545 25.262 87.319V13.7256C25.2631 10.8901 27.5087 8.63341 30.3487 8.63341ZM30.3487 6.33008C26.2709 6.33008 22.9531 9.64786 22.9531 13.7256V87.319C22.9531 91.399 26.2709 94.7145 30.3487 94.7145H69.7198C73.7998 94.7145 77.1209 91.399 77.1209 87.319V13.7256C77.1209 9.64786 73.7998 6.33008 69.7198 6.33008H30.3487Z" fill="#ADBCD2"/>
<path d="M46.311 11.1279C45.6676 11.1279 45.1543 11.6413 45.1543 12.2846C45.1543 12.9268 45.6676 13.4424 46.311 13.4424H54.3432C54.9798 13.4424 55.501 12.9268 55.501 12.2846C55.501 11.6413 54.9798 11.1279 54.3432 11.1279H46.311Z" fill="#C4C4D5"/>
</svg>
