<svg width="70" height="69" viewBox="0 0 70 69" fill="none" xmlns="http://www.w3.org/2000/svg">
<circle cx="35" cy="34.5" r="34.5" fill="#EAFFF1"/>
<path d="M34.7137 18.2859C25.6616 18.2859 18.2852 25.6623 18.2852 34.7145C18.2852 43.7666 25.6616 51.143 34.7137 51.143C43.7659 51.143 51.1423 43.7666 51.1423 34.7145C51.1423 25.6623 43.7659 18.2859 34.7137 18.2859ZM42.5666 30.9359L33.2516 40.2509C33.0216 40.4809 32.7094 40.6123 32.3809 40.6123C32.0523 40.6123 31.7402 40.4809 31.5102 40.2509L26.8609 35.6016C26.3844 35.1252 26.3844 34.3366 26.8609 33.8602C27.3373 33.3837 28.1259 33.3837 28.6023 33.8602L32.3809 37.6387L40.8252 29.1945C41.3016 28.718 42.0902 28.718 42.5666 29.1945C43.043 29.6709 43.043 30.443 42.5666 30.9359Z" fill="#17C653"/>
</svg>
