<svg width="104" height="40" viewBox="0 0 104 40" fill="none" xmlns="http://www.w3.org/2000/svg">
<path d="M16.4992 2.5H37.5808L22.0816 25.4729H1L16.4992 2.5Z" fill="#1B84FF"/>
<path d="M17.4231 27.6022L11.4199 36.5002H33.5015L49.0007 13.5273H32.7031L23.2071 27.6022H17.4231Z" fill="#056EE9"/>
<path d="M72.2967 17.3622H69.6404C69.5647 16.9266 69.425 16.5407 69.2214 16.2045C69.0178 15.8636 68.7645 15.5748 68.4614 15.3381C68.1584 15.1013 67.8128 14.9238 67.4245 14.8054C67.041 14.6823 66.6267 14.6207 66.1816 14.6207C65.3909 14.6207 64.6901 14.8196 64.0793 15.2173C63.4685 15.6103 62.9903 16.188 62.6447 16.9503C62.299 17.7079 62.1262 18.6335 62.1262 19.7273C62.1262 20.84 62.299 21.7775 62.6447 22.5398C62.9951 23.2973 63.4733 23.8703 64.0793 24.2585C64.6901 24.642 65.3885 24.8338 66.1745 24.8338C66.6101 24.8338 67.0173 24.777 67.3961 24.6634C67.7796 24.545 68.1229 24.3722 68.4259 24.1449C68.7337 23.9176 68.9917 23.6383 69.2001 23.3068C69.4131 22.9754 69.5599 22.5966 69.6404 22.1705L72.2967 22.1847C72.1972 22.8759 71.9818 23.5246 71.6504 24.1307C71.3237 24.7367 70.8951 25.2718 70.3648 25.7358C69.8345 26.1951 69.2143 26.5549 68.504 26.8153C67.7938 27.071 67.0055 27.1989 66.139 27.1989C64.8606 27.1989 63.7195 26.9029 62.7157 26.3111C61.7119 25.7192 60.9212 24.8646 60.3435 23.7472C59.7659 22.6297 59.4771 21.2898 59.4771 19.7273C59.4771 18.16 59.7683 16.8201 60.3506 15.7074C60.933 14.59 61.7261 13.7353 62.7299 13.1435C63.7337 12.5516 64.8701 12.2557 66.139 12.2557C66.9487 12.2557 67.7015 12.3693 68.3975 12.5966C69.0935 12.8239 69.7138 13.1577 70.2583 13.598C70.8028 14.0336 71.2503 14.5687 71.6006 15.2031C71.9558 15.8329 72.1878 16.5526 72.2967 17.3622ZM74.3097 12.4545H77.5341L81.8523 22.9943H82.0227L86.3409 12.4545H89.5653V27H87.0369V17.0071H86.902L82.8821 26.9574H80.9929L76.973 16.9858H76.8381V27H74.3097V12.4545ZM99.9395 16.4531C99.8732 15.8329 99.5938 15.3499 99.1014 15.0043C98.6137 14.6586 97.9793 14.4858 97.198 14.4858C96.6488 14.4858 96.1777 14.5687 95.7847 14.7344C95.3917 14.9001 95.091 15.125 94.8827 15.4091C94.6743 15.6932 94.5678 16.0175 94.5631 16.3821C94.5631 16.6851 94.6317 16.9479 94.769 17.1705C94.9111 17.393 95.1028 17.5824 95.3443 17.7386C95.5858 17.8902 95.8533 18.018 96.1469 18.1222C96.4404 18.2263 96.7364 18.3139 97.0347 18.3849L98.3983 18.7259C98.9475 18.8537 99.4755 19.0265 99.9821 19.2443C100.493 19.4621 100.95 19.7367 101.353 20.0682C101.76 20.3996 102.082 20.7997 102.319 21.2685C102.555 21.7372 102.674 22.2865 102.674 22.9162C102.674 23.7685 102.456 24.5189 102.02 25.1676C101.585 25.8116 100.955 26.3158 100.131 26.6804C99.3121 27.0402 98.3202 27.2202 97.1554 27.2202C96.0238 27.2202 95.0413 27.045 94.208 26.6946C93.3794 26.3442 92.7307 25.8329 92.2619 25.1605C91.7979 24.4882 91.547 23.669 91.5091 22.7031H94.1014C94.1393 23.2098 94.2955 23.6312 94.5702 23.9673C94.8448 24.3035 95.2023 24.5545 95.6426 24.7202C96.0877 24.8859 96.5848 24.9688 97.1341 24.9688C97.707 24.9688 98.2089 24.8835 98.6398 24.7131C99.0754 24.5379 99.4163 24.2964 99.6625 23.9886C99.9087 23.6761 100.034 23.3116 100.039 22.8949C100.034 22.5161 99.9229 22.2036 99.7051 21.9574C99.4873 21.7064 99.1819 21.4981 98.7889 21.3324C98.4007 21.1619 97.9461 21.0104 97.4253 20.8778L95.7705 20.4517C94.5725 20.1439 93.6256 19.6776 92.9295 19.0526C92.2383 18.4228 91.8926 17.5871 91.8926 16.5455C91.8926 15.6884 92.1246 14.938 92.5886 14.294C93.0574 13.6501 93.6942 13.1506 94.4991 12.7955C95.3041 12.4356 96.2155 12.2557 97.2335 12.2557C98.2657 12.2557 99.1701 12.4356 99.9466 12.7955C100.728 13.1506 101.341 13.6454 101.786 14.2798C102.231 14.9096 102.461 15.634 102.475 16.4531H99.9395Z" fill="white"/>
</svg>
